<svg width="318" height="204" viewBox="0 0 318 204" fill="none" xmlns="http://www.w3.org/2000/svg">
<path fill-rule="evenodd" clip-rule="evenodd" d="M101.5 22.2404V55.8724L168.764 100.353L194.802 83.5373V49.3628L194.259 48.8203L216.5 34.174V0L167.679 32.0043V65.0937L101.5 22.2404Z" fill="#A82259"/>
<path fill-rule="evenodd" clip-rule="evenodd" d="M167.679 32.0044L194.802 49.3629L169.035 65.9078L167.679 65.0938V32.0044Z" fill="#D52364"/>
<path fill-rule="evenodd" clip-rule="evenodd" d="M101.5 21.97V55.6019L168.764 100.083V65.9078L101.5 21.97Z" fill="#D52364"/>
<path d="M27.9941 127.444L38.3577 156.83H38.7668L49.1304 127.444H53.5623L40.7441 162.353H36.3804L23.5623 127.444H27.9941ZM68.987 127.444V162.353H64.7598V127.444H68.987ZM85.2683 127.444L94.2683 141.967H94.5411L103.541 127.444H108.518L97.5411 144.898L108.518 162.353H103.541L94.5411 148.103H94.2683L85.2683 162.353H80.2911L91.5411 144.898L80.2911 127.444H85.2683ZM124.007 127.444V162.353H119.78V127.444H124.007ZM157.503 162.353V127.444H169.298C172.026 127.444 174.264 127.91 176.014 128.842C177.764 129.762 179.06 131.029 179.901 132.643C180.742 134.256 181.162 136.092 181.162 138.148C181.162 140.205 180.742 142.029 179.901 143.62C179.06 145.211 177.77 146.461 176.031 147.37C174.293 148.268 172.071 148.717 169.367 148.717H159.821V144.898H169.23C171.094 144.898 172.594 144.626 173.73 144.08C174.878 143.535 175.707 142.762 176.219 141.762C176.742 140.751 177.003 139.546 177.003 138.148C177.003 136.751 176.742 135.529 176.219 134.484C175.696 133.438 174.861 132.631 173.713 132.063C172.565 131.484 171.048 131.194 169.162 131.194H161.73V162.353H157.503ZM173.935 146.671L182.526 162.353H177.617L169.162 146.671H173.935ZM195.398 162.353H190.966L203.784 127.444H208.148L220.966 162.353H216.534L206.102 132.967H205.83L195.398 162.353ZM197.034 148.717H214.898V152.467H197.034V148.717ZM258.614 138.353H254.387C254.137 137.137 253.699 136.069 253.074 135.148C252.46 134.228 251.71 133.455 250.824 132.83C249.949 132.194 248.977 131.717 247.909 131.398C246.841 131.08 245.727 130.921 244.568 130.921C242.455 130.921 240.54 131.455 238.824 132.523C237.119 133.592 235.762 135.166 234.75 137.245C233.75 139.325 233.25 141.876 233.25 144.898C233.25 147.921 233.75 150.472 234.75 152.552C235.762 154.631 237.119 156.205 238.824 157.273C240.54 158.342 242.455 158.876 244.568 158.876C245.727 158.876 246.841 158.717 247.909 158.398C248.977 158.08 249.949 157.609 250.824 156.984C251.71 156.347 252.46 155.569 253.074 154.648C253.699 153.717 254.137 152.648 254.387 151.444H258.614C258.296 153.228 257.716 154.825 256.875 156.234C256.034 157.643 254.989 158.842 253.739 159.83C252.489 160.808 251.085 161.552 249.529 162.063C247.983 162.575 246.33 162.83 244.568 162.83C241.591 162.83 238.943 162.103 236.625 160.648C234.307 159.194 232.483 157.126 231.154 154.444C229.824 151.762 229.159 148.58 229.159 144.898C229.159 141.217 229.824 138.035 231.154 135.353C232.483 132.671 234.307 130.603 236.625 129.148C238.943 127.694 241.591 126.967 244.568 126.967C246.33 126.967 247.983 127.222 249.529 127.734C251.085 128.245 252.489 128.995 253.739 129.984C254.989 130.961 256.034 132.154 256.875 133.563C257.716 134.961 258.296 136.558 258.614 138.353ZM271.205 162.353V127.444H292.273V131.194H275.432V142.989H291.182V146.739H275.432V158.603H292.546V162.353H271.205Z" fill="url(#paint0_linear_2907_16813)"/>
<path d="M1.9141 198.353V183.808H6.82888C7.96998 183.808 8.90274 184.014 9.62717 184.425C10.3563 184.833 10.8961 185.384 11.2465 186.08C11.5969 186.776 11.7721 187.553 11.7721 188.41C11.7721 189.267 11.5969 190.046 11.2465 190.746C10.9008 191.447 10.3658 192.006 9.64138 192.423C8.91695 192.835 7.98891 193.041 6.85729 193.041H3.33456V191.478H6.80047C7.58172 191.478 8.20909 191.343 8.68257 191.073C9.15606 190.803 9.49933 190.439 9.7124 189.979C9.9302 189.515 10.0391 188.992 10.0391 188.41C10.0391 187.827 9.9302 187.307 9.7124 186.847C9.49933 186.388 9.15369 186.028 8.67547 185.768C8.19725 185.503 7.56278 185.37 6.77206 185.37H3.67547V198.353H1.9141ZM19.4968 198.58C18.5119 198.58 17.6478 198.346 16.9044 197.877C16.1658 197.408 15.5882 196.753 15.1715 195.91C14.7596 195.067 14.5536 194.082 14.5536 192.955C14.5536 191.819 14.7596 190.827 15.1715 189.979C15.5882 189.132 16.1658 188.474 16.9044 188.005C17.6478 187.536 18.5119 187.302 19.4968 187.302C20.4816 187.302 21.3434 187.536 22.082 188.005C22.8254 188.474 23.403 189.132 23.815 189.979C24.2316 190.827 24.44 191.819 24.44 192.955C24.44 194.082 24.2316 195.067 23.815 195.91C23.403 196.753 22.8254 197.408 22.082 197.877C21.3434 198.346 20.4816 198.58 19.4968 198.58ZM19.4968 197.075C20.2449 197.075 20.8604 196.883 21.3434 196.499C21.8263 196.116 22.1838 195.612 22.4158 194.987C22.6478 194.362 22.7638 193.684 22.7638 192.955C22.7638 192.226 22.6478 191.547 22.4158 190.917C22.1838 190.287 21.8263 189.778 21.3434 189.39C20.8604 189.002 20.2449 188.808 19.4968 188.808C18.7487 188.808 18.1331 189.002 17.6502 189.39C17.1672 189.778 16.8097 190.287 16.5777 190.917C16.3457 191.547 16.2297 192.226 16.2297 192.955C16.2297 193.684 16.3457 194.362 16.5777 194.987C16.8097 195.612 17.1672 196.116 17.6502 196.499C18.1331 196.883 18.7487 197.075 19.4968 197.075ZM29.899 198.353L26.5752 187.444H28.3365L30.6945 195.796H30.8081L33.1377 187.444H34.9275L37.2286 195.768H37.3422L39.7002 187.444H41.4615L38.1377 198.353H36.49L34.1036 189.972H33.9331L31.5468 198.353H29.899ZM48.6802 198.58C47.6291 198.58 46.7224 198.348 45.9601 197.884C45.2025 197.416 44.6177 196.762 44.2058 195.924C43.7986 195.081 43.595 194.101 43.595 192.984C43.595 191.866 43.7986 190.881 44.2058 190.029C44.6177 189.172 45.1906 188.505 45.9245 188.026C46.6632 187.543 47.5249 187.302 48.5098 187.302C49.078 187.302 49.639 187.397 50.193 187.586C50.747 187.775 51.2513 188.083 51.7058 188.509C52.1603 188.931 52.5226 189.489 52.7924 190.185C53.0623 190.881 53.1973 191.738 53.1973 192.756V193.467H44.7882V192.018H51.4927C51.4927 191.402 51.3696 190.853 51.1234 190.37C50.8819 189.887 50.5363 189.506 50.0865 189.227C49.6414 188.947 49.1158 188.808 48.5098 188.808C47.8422 188.808 47.2645 188.973 46.7768 189.305C46.2939 189.631 45.9222 190.058 45.6618 190.583C45.4013 191.109 45.2711 191.672 45.2711 192.273V193.239C45.2711 194.063 45.4132 194.762 45.6973 195.335C45.9861 195.903 46.3862 196.336 46.8976 196.634C47.4089 196.928 48.0031 197.075 48.6802 197.075C49.1206 197.075 49.5183 197.013 49.8734 196.89C50.2333 196.762 50.5434 196.573 50.8038 196.322C51.0642 196.066 51.2655 195.749 51.4075 195.37L53.0268 195.825C52.8564 196.374 52.5699 196.857 52.1674 197.273C51.765 197.685 51.2678 198.007 50.676 198.239C50.0841 198.467 49.4189 198.58 48.6802 198.58ZM56.547 198.353V187.444H58.1663V189.092H58.2799C58.4788 188.552 58.8387 188.114 59.3595 187.778C59.8803 187.442 60.4674 187.273 61.1209 187.273C61.244 187.273 61.3978 187.276 61.5825 187.281C61.7672 187.285 61.9068 187.292 62.0015 187.302V189.006C61.9447 188.992 61.8145 188.971 61.6109 188.943C61.412 188.909 61.2013 188.893 60.9788 188.893C60.4485 188.893 59.975 189.004 59.5584 189.227C59.1464 189.444 58.8197 189.747 58.5782 190.136C58.3415 190.519 58.2231 190.957 58.2231 191.45V198.353H56.547ZM69.0302 198.58C67.9791 198.58 67.0724 198.348 66.3101 197.884C65.5525 197.416 64.9677 196.762 64.5558 195.924C64.1486 195.081 63.945 194.101 63.945 192.984C63.945 191.866 64.1486 190.881 64.5558 190.029C64.9677 189.172 65.5406 188.505 66.2745 188.026C67.0132 187.543 67.8749 187.302 68.8598 187.302C69.428 187.302 69.989 187.397 70.543 187.586C71.097 187.775 71.6012 188.083 72.0558 188.509C72.5103 188.931 72.8726 189.489 73.1424 190.185C73.4123 190.881 73.5473 191.738 73.5473 192.756V193.467H65.1382V192.018H71.8427C71.8427 191.402 71.7196 190.853 71.4734 190.37C71.2319 189.887 70.8863 189.506 70.4365 189.227C69.9914 188.947 69.4658 188.808 68.8598 188.808C68.1922 188.808 67.6145 188.973 67.1268 189.305C66.6439 189.631 66.2722 190.058 66.0118 190.583C65.7513 191.109 65.6211 191.672 65.6211 192.273V193.239C65.6211 194.063 65.7632 194.762 66.0473 195.335C66.3361 195.903 66.7362 196.336 67.2476 196.634C67.7589 196.928 68.3531 197.075 69.0302 197.075C69.4706 197.075 69.8683 197.013 70.2234 196.89C70.5833 196.762 70.8934 196.573 71.1538 196.322C71.4142 196.066 71.6155 195.749 71.7575 195.37L73.3768 195.825C73.2064 196.374 72.9199 196.857 72.5174 197.273C72.115 197.685 71.6178 198.007 71.026 198.239C70.4341 198.467 69.7689 198.58 69.0302 198.58ZM81.0163 198.58C80.1072 198.58 79.3047 198.351 78.6086 197.891C77.9126 197.427 77.3681 196.774 76.9751 195.931C76.5821 195.084 76.3856 194.082 76.3856 192.927C76.3856 191.781 76.5821 190.787 76.9751 189.944C77.3681 189.101 77.915 188.45 78.6157 187.991C79.3165 187.532 80.1262 187.302 81.0447 187.302C81.7549 187.302 82.316 187.42 82.728 187.657C83.1446 187.889 83.4619 188.154 83.6797 188.452C83.9022 188.746 84.075 188.987 84.1981 189.177H84.3402V183.808H86.0163V198.353H84.397V196.677H84.1981C84.075 196.876 83.8998 197.127 83.6726 197.43C83.4453 197.728 83.1209 197.996 82.6995 198.232C82.2781 198.464 81.7171 198.58 81.0163 198.58ZM81.2436 197.075C81.9159 197.075 82.4841 196.899 82.9481 196.549C83.4121 196.194 83.7649 195.704 84.0064 195.079C84.2478 194.449 84.3686 193.722 84.3686 192.898C84.3686 192.084 84.2502 191.371 84.0135 190.761C83.7767 190.145 83.4263 189.667 82.9623 189.326C82.4983 188.98 81.9254 188.808 81.2436 188.808C80.5334 188.808 79.9415 188.99 79.468 189.354C78.9993 189.714 78.6465 190.204 78.4098 190.825C78.1778 191.44 78.0618 192.131 78.0618 192.898C78.0618 193.675 78.1801 194.38 78.4169 195.015C78.6584 195.645 79.0135 196.147 79.4822 196.521C79.9557 196.89 80.5428 197.075 81.2436 197.075ZM96.7711 198.353V183.808H98.4473V189.177H98.5893C98.7124 188.987 98.8829 188.746 99.1007 188.452C99.3232 188.154 99.6405 187.889 100.052 187.657C100.469 187.42 101.033 187.302 101.743 187.302C102.661 187.302 103.471 187.532 104.172 187.991C104.872 188.45 105.419 189.101 105.812 189.944C106.205 190.787 106.402 191.781 106.402 192.927C106.402 194.082 106.205 195.084 105.812 195.931C105.419 196.774 104.875 197.427 104.179 197.891C103.483 198.351 102.68 198.58 101.771 198.58C101.07 198.58 100.509 198.464 100.088 198.232C99.6665 197.996 99.3422 197.728 99.1149 197.43C98.8876 197.127 98.7124 196.876 98.5893 196.677H98.3905V198.353H96.7711ZM98.4189 192.898C98.4189 193.722 98.5396 194.449 98.7811 195.079C99.0226 195.704 99.3753 196.194 99.8393 196.549C100.303 196.899 100.872 197.075 101.544 197.075C102.245 197.075 102.829 196.89 103.298 196.521C103.772 196.147 104.127 195.645 104.363 195.015C104.605 194.38 104.726 193.675 104.726 192.898C104.726 192.131 104.607 191.44 104.371 190.825C104.139 190.204 103.786 189.714 103.312 189.354C102.844 188.99 102.254 188.808 101.544 188.808C100.862 188.808 100.289 188.98 99.8251 189.326C99.3611 189.667 99.0107 190.145 98.774 190.761C98.5372 191.371 98.4189 192.084 98.4189 192.898ZM110.455 202.444C110.171 202.444 109.917 202.42 109.695 202.373C109.472 202.33 109.318 202.288 109.233 202.245L109.659 200.768C110.066 200.872 110.426 200.91 110.739 200.881C111.051 200.853 111.328 200.713 111.57 200.462C111.816 200.216 112.041 199.816 112.244 199.262L112.557 198.41L108.523 187.444H110.341L113.352 196.137H113.466L116.477 187.444H118.296L113.665 199.944C113.457 200.507 113.198 200.974 112.891 201.343C112.583 201.717 112.225 201.994 111.818 202.174C111.416 202.354 110.961 202.444 110.455 202.444ZM127.165 185.37V183.808H138.074V185.37H133.5V198.353H131.739V185.37H127.165ZM143.041 191.791V198.353H141.365V183.808H143.041V189.148H143.183C143.439 188.585 143.822 188.138 144.334 187.806C144.85 187.47 145.536 187.302 146.393 187.302C147.137 187.302 147.788 187.451 148.346 187.749C148.905 188.043 149.338 188.495 149.646 189.106C149.959 189.712 150.115 190.484 150.115 191.421V198.353H148.439V191.535C148.439 190.668 148.214 189.998 147.764 189.525C147.319 189.047 146.701 188.808 145.91 188.808C145.361 188.808 144.869 188.924 144.433 189.156C144.002 189.388 143.661 189.726 143.41 190.171C143.164 190.616 143.041 191.156 143.041 191.791ZM158.555 198.58C157.504 198.58 156.597 198.348 155.835 197.884C155.077 197.416 154.493 196.762 154.081 195.924C153.674 195.081 153.47 194.101 153.47 192.984C153.47 191.866 153.674 190.881 154.081 190.029C154.493 189.172 155.066 188.505 155.8 188.026C156.538 187.543 157.4 187.302 158.385 187.302C158.953 187.302 159.514 187.397 160.068 187.586C160.622 187.775 161.126 188.083 161.581 188.509C162.035 188.931 162.398 189.489 162.667 190.185C162.937 190.881 163.072 191.738 163.072 192.756V193.467H154.663V192.018H161.368C161.368 191.402 161.245 190.853 160.998 190.37C160.757 189.887 160.411 189.506 159.961 189.227C159.516 188.947 158.991 188.808 158.385 188.808C157.717 188.808 157.14 188.973 156.652 189.305C156.169 189.631 155.797 190.058 155.537 190.583C155.276 191.109 155.146 191.672 155.146 192.273V193.239C155.146 194.063 155.288 194.762 155.572 195.335C155.861 195.903 156.261 196.336 156.773 196.634C157.284 196.928 157.878 197.075 158.555 197.075C158.996 197.075 159.393 197.013 159.748 196.89C160.108 196.762 160.418 196.573 160.679 196.322C160.939 196.066 161.14 195.749 161.282 195.37L162.902 195.825C162.731 196.374 162.445 196.857 162.042 197.273C161.64 197.685 161.143 198.007 160.551 198.239C159.959 198.467 159.294 198.58 158.555 198.58ZM173.074 198.353V183.808H181.796V185.37H174.836V190.285H181.142V191.847H174.836V198.353H173.074ZM188.595 198.609C187.904 198.609 187.277 198.479 186.713 198.218C186.15 197.953 185.703 197.572 185.371 197.075C185.04 196.573 184.874 195.967 184.874 195.256C184.874 194.631 184.997 194.125 185.243 193.737C185.489 193.344 185.819 193.036 186.23 192.813C186.642 192.591 187.097 192.425 187.594 192.316C188.096 192.202 188.6 192.112 189.107 192.046C189.77 191.961 190.307 191.897 190.719 191.854C191.136 191.807 191.439 191.729 191.628 191.62C191.822 191.511 191.919 191.322 191.919 191.052V190.995C191.919 190.294 191.728 189.75 191.344 189.362C190.965 188.973 190.39 188.779 189.618 188.779C188.818 188.779 188.191 188.954 187.736 189.305C187.282 189.655 186.962 190.029 186.777 190.427L185.186 189.859C185.47 189.196 185.849 188.68 186.323 188.31C186.801 187.936 187.322 187.676 187.885 187.529C188.453 187.378 189.012 187.302 189.561 187.302C189.912 187.302 190.314 187.345 190.769 187.43C191.228 187.51 191.671 187.678 192.097 187.934C192.528 188.19 192.885 188.576 193.169 189.092C193.453 189.608 193.595 190.299 193.595 191.166V198.353H191.919V196.876H191.834C191.72 197.112 191.531 197.366 191.266 197.636C191.001 197.906 190.648 198.135 190.208 198.325C189.767 198.514 189.23 198.609 188.595 198.609ZM188.851 197.103C189.514 197.103 190.073 196.973 190.527 196.712C190.987 196.452 191.332 196.116 191.564 195.704C191.801 195.292 191.919 194.859 191.919 194.404V192.87C191.848 192.955 191.692 193.033 191.451 193.104C191.214 193.171 190.939 193.23 190.627 193.282C190.319 193.329 190.018 193.372 189.725 193.41C189.436 193.443 189.202 193.471 189.022 193.495C188.586 193.552 188.179 193.644 187.8 193.772C187.426 193.895 187.123 194.082 186.891 194.333C186.664 194.579 186.55 194.916 186.55 195.342C186.55 195.924 186.765 196.364 187.196 196.663C187.632 196.956 188.184 197.103 188.851 197.103ZM197.455 198.353V187.444H199.074V189.148H199.216C199.443 188.566 199.81 188.114 200.317 187.792C200.824 187.465 201.432 187.302 202.142 187.302C202.862 187.302 203.461 187.465 203.939 187.792C204.422 188.114 204.799 188.566 205.068 189.148H205.182C205.461 188.585 205.88 188.138 206.439 187.806C206.998 187.47 207.668 187.302 208.449 187.302C209.425 187.302 210.222 187.607 210.843 188.218C211.463 188.824 211.773 189.769 211.773 191.052V198.353H210.097V191.052C210.097 190.247 209.877 189.672 209.436 189.326C208.996 188.98 208.478 188.808 207.881 188.808C207.114 188.808 206.52 189.04 206.098 189.504C205.677 189.963 205.466 190.545 205.466 191.251V198.353H203.762V190.881C203.762 190.261 203.56 189.762 203.158 189.383C202.755 188.999 202.237 188.808 201.603 188.808C201.167 188.808 200.76 188.924 200.381 189.156C200.007 189.388 199.704 189.71 199.472 190.121C199.245 190.529 199.131 191 199.131 191.535V198.353H197.455ZM220.069 198.58C219.085 198.58 218.22 198.346 217.477 197.877C216.738 197.408 216.161 196.753 215.744 195.91C215.332 195.067 215.126 194.082 215.126 192.955C215.126 191.819 215.332 190.827 215.744 189.979C216.161 189.132 216.738 188.474 217.477 188.005C218.22 187.536 219.085 187.302 220.069 187.302C221.054 187.302 221.916 187.536 222.655 188.005C223.398 188.474 223.976 189.132 224.388 189.979C224.804 190.827 225.013 191.819 225.013 192.955C225.013 194.082 224.804 195.067 224.388 195.91C223.976 196.753 223.398 197.408 222.655 197.877C221.916 198.346 221.054 198.58 220.069 198.58ZM220.069 197.075C220.818 197.075 221.433 196.883 221.916 196.499C222.399 196.116 222.756 195.612 222.988 194.987C223.22 194.362 223.336 193.684 223.336 192.955C223.336 192.226 223.22 191.547 222.988 190.917C222.756 190.287 222.399 189.778 221.916 189.39C221.433 189.002 220.818 188.808 220.069 188.808C219.321 188.808 218.706 189.002 218.223 189.39C217.74 189.778 217.382 190.287 217.15 190.917C216.918 191.547 216.802 192.226 216.802 192.955C216.802 193.684 216.918 194.362 217.15 194.987C217.382 195.612 217.74 196.116 218.223 196.499C218.706 196.883 219.321 197.075 220.069 197.075ZM235.246 193.893V187.444H236.922V198.353H235.246V196.506H235.133C234.877 197.06 234.479 197.532 233.939 197.92C233.4 198.303 232.718 198.495 231.894 198.495C231.212 198.495 230.606 198.346 230.076 198.048C229.545 197.745 229.129 197.29 228.826 196.684C228.523 196.073 228.371 195.304 228.371 194.376V187.444H230.047V194.262C230.047 195.058 230.27 195.692 230.715 196.166C231.165 196.639 231.738 196.876 232.434 196.876C232.85 196.876 233.274 196.769 233.705 196.556C234.141 196.343 234.505 196.016 234.799 195.576C235.097 195.136 235.246 194.575 235.246 193.893ZM248.52 189.887L247.014 190.313C246.919 190.062 246.78 189.818 246.595 189.582C246.415 189.34 246.169 189.141 245.856 188.985C245.544 188.829 245.144 188.751 244.656 188.751C243.988 188.751 243.432 188.905 242.987 189.212C242.547 189.515 242.326 189.901 242.326 190.37C242.326 190.787 242.478 191.116 242.781 191.357C243.084 191.599 243.557 191.8 244.201 191.961L245.821 192.359C246.796 192.595 247.523 192.958 248.001 193.445C248.479 193.928 248.718 194.551 248.718 195.313C248.718 195.938 248.539 196.497 248.179 196.989C247.824 197.482 247.326 197.87 246.687 198.154C246.048 198.438 245.305 198.58 244.457 198.58C243.344 198.58 242.423 198.339 241.694 197.856C240.965 197.373 240.503 196.667 240.309 195.739L241.9 195.342C242.052 195.929 242.338 196.369 242.76 196.663C243.186 196.956 243.742 197.103 244.429 197.103C245.21 197.103 245.83 196.937 246.289 196.606C246.753 196.27 246.985 195.867 246.985 195.398C246.985 195.02 246.853 194.702 246.588 194.447C246.323 194.186 245.915 193.992 245.366 193.864L243.548 193.438C242.549 193.202 241.815 192.835 241.346 192.337C240.882 191.836 240.65 191.208 240.65 190.455C240.65 189.84 240.823 189.295 241.169 188.822C241.519 188.348 241.995 187.977 242.596 187.707C243.202 187.437 243.889 187.302 244.656 187.302C245.735 187.302 246.583 187.539 247.199 188.012C247.819 188.486 248.259 189.111 248.52 189.887ZM268.637 188.353C268.481 187.875 268.275 187.446 268.019 187.068C267.768 186.684 267.467 186.357 267.117 186.087C266.771 185.818 266.378 185.612 265.938 185.47C265.498 185.327 265.015 185.256 264.489 185.256C263.628 185.256 262.844 185.479 262.138 185.924C261.433 186.369 260.872 187.025 260.455 187.891C260.038 188.758 259.83 189.821 259.83 191.08C259.83 192.34 260.041 193.403 260.462 194.269C260.884 195.136 261.454 195.791 262.174 196.237C262.894 196.682 263.703 196.904 264.603 196.904C265.436 196.904 266.17 196.727 266.805 196.371C267.444 196.012 267.941 195.505 268.296 194.852C268.656 194.193 268.836 193.419 268.836 192.529L269.376 192.643H265.001V191.08H270.54V192.643C270.54 193.841 270.285 194.882 269.773 195.768C269.267 196.653 268.566 197.34 267.671 197.827C266.781 198.31 265.758 198.552 264.603 198.552C263.315 198.552 262.183 198.249 261.208 197.643C260.237 197.037 259.48 196.175 258.935 195.058C258.396 193.94 258.126 192.614 258.126 191.08C258.126 189.93 258.279 188.895 258.587 187.977C258.9 187.053 259.34 186.267 259.908 185.619C260.476 184.97 261.149 184.473 261.925 184.127C262.702 183.782 263.556 183.609 264.489 183.609C265.256 183.609 265.971 183.725 266.634 183.957C267.302 184.184 267.896 184.508 268.417 184.93C268.942 185.346 269.38 185.846 269.731 186.428C270.081 187.006 270.323 187.648 270.455 188.353H268.637ZM274.13 198.353V187.444H275.749V189.092H275.863C276.062 188.552 276.421 188.114 276.942 187.778C277.463 187.442 278.05 187.273 278.704 187.273C278.827 187.273 278.981 187.276 279.165 187.281C279.35 187.285 279.49 187.292 279.584 187.302V189.006C279.528 188.992 279.397 188.971 279.194 188.943C278.995 188.909 278.784 188.893 278.562 188.893C278.031 188.893 277.558 189.004 277.141 189.227C276.729 189.444 276.403 189.747 276.161 190.136C275.924 190.519 275.806 190.957 275.806 191.45V198.353H274.13ZM286.471 198.58C285.486 198.58 284.622 198.346 283.879 197.877C283.14 197.408 282.562 196.753 282.146 195.91C281.734 195.067 281.528 194.082 281.528 192.955C281.528 191.819 281.734 190.827 282.146 189.979C282.562 189.132 283.14 188.474 283.879 188.005C284.622 187.536 285.486 187.302 286.471 187.302C287.456 187.302 288.318 187.536 289.056 188.005C289.8 188.474 290.377 189.132 290.789 189.979C291.206 190.827 291.414 191.819 291.414 192.955C291.414 194.082 291.206 195.067 290.789 195.91C290.377 196.753 289.8 197.408 289.056 197.877C288.318 198.346 287.456 198.58 286.471 198.58ZM286.471 197.075C287.219 197.075 287.835 196.883 288.318 196.499C288.801 196.116 289.158 195.612 289.39 194.987C289.622 194.362 289.738 193.684 289.738 192.955C289.738 192.226 289.622 191.547 289.39 190.917C289.158 190.287 288.801 189.778 288.318 189.39C287.835 189.002 287.219 188.808 286.471 188.808C285.723 188.808 285.107 189.002 284.624 189.39C284.141 189.778 283.784 190.287 283.552 190.917C283.32 191.547 283.204 192.226 283.204 192.955C283.204 193.684 283.32 194.362 283.552 194.987C283.784 195.612 284.141 196.116 284.624 196.499C285.107 196.883 285.723 197.075 286.471 197.075ZM301.648 193.893V187.444H303.324V198.353H301.648V196.506H301.534C301.278 197.06 300.881 197.532 300.341 197.92C299.801 198.303 299.119 198.495 298.295 198.495C297.614 198.495 297.008 198.346 296.477 198.048C295.947 197.745 295.53 197.29 295.227 196.684C294.924 196.073 294.773 195.304 294.773 194.376V187.444H296.449V194.262C296.449 195.058 296.671 195.692 297.117 196.166C297.566 196.639 298.139 196.876 298.835 196.876C299.252 196.876 299.676 196.769 300.107 196.556C300.542 196.343 300.907 196.016 301.2 195.576C301.499 195.136 301.648 194.575 301.648 193.893ZM307.194 202.444V187.444H308.813V189.177H309.012C309.135 188.987 309.306 188.746 309.523 188.452C309.746 188.154 310.063 187.889 310.475 187.657C310.892 187.42 311.455 187.302 312.165 187.302C313.084 187.302 313.894 187.532 314.594 187.991C315.295 188.45 315.842 189.101 316.235 189.944C316.628 190.787 316.825 191.781 316.825 192.927C316.825 194.082 316.628 195.084 316.235 195.931C315.842 196.774 315.298 197.427 314.602 197.891C313.905 198.351 313.103 198.58 312.194 198.58C311.493 198.58 310.932 198.464 310.511 198.232C310.089 197.996 309.765 197.728 309.538 197.43C309.31 197.127 309.135 196.876 309.012 196.677H308.87V202.444H307.194ZM308.842 192.898C308.842 193.722 308.962 194.449 309.204 195.079C309.445 195.704 309.798 196.194 310.262 196.549C310.726 196.899 311.294 197.075 311.967 197.075C312.667 197.075 313.252 196.89 313.721 196.521C314.194 196.147 314.549 195.645 314.786 195.015C315.028 194.38 315.148 193.675 315.148 192.898C315.148 192.131 315.03 191.44 314.793 190.825C314.561 190.204 314.209 189.714 313.735 189.354C313.266 188.99 312.677 188.808 311.967 188.808C311.285 188.808 310.712 188.98 310.248 189.326C309.784 189.667 309.433 190.145 309.197 190.761C308.96 191.371 308.842 192.084 308.842 192.898Z" fill="url(#paint1_linear_2907_16813)"/>
<defs>
<linearGradient id="paint0_linear_2907_16813" x1="159" y1="116.353" x2="159" y2="174.353" gradientUnits="userSpaceOnUse">
<stop stop-color="white"/>
<stop offset="1" stop-color="#999999"/>
</linearGradient>
<linearGradient id="paint1_linear_2907_16813" x1="159" y1="179.353" x2="159" y2="203.353" gradientUnits="userSpaceOnUse">
<stop stop-color="white"/>
<stop offset="1" stop-color="#999999"/>
</linearGradient>
</defs>
</svg>
